<svg width="426" height="433" viewBox="0 0 426 433" fill="none" xmlns="http://www.w3.org/2000/svg">
<rect width="426" height="433" fill="#AAAAAA"/>
<path d="M56.5378 158.192H87.5287V212.624L111.109 218L171.743 158.192H238.441L260 141.392V71.504L238.441 50H60.5801L37 71.504V134.672L56.5378 158.192Z" stroke="black" stroke-width="3"/>
<path d="M61 51.5H238L258.5 72.1108V141L238 157L171 158L110.5 216.5L89 211.5V174V158H57L38.5 136.5V72L61 51.5Z" fill="white"/>
<path d="M384.344 345.92H346.822V404.24L318.272 410L244.858 345.92H164.103L138 327.92V253.04L164.103 230H379.45L408 253.04V320.72L384.344 345.92Z" stroke="black" stroke-width="3"/>
<path d="M378.942 231.607H164.637L139.816 253.69V327.5L164.637 344.643L245.758 345.714L319.009 408.393L345.041 403.036V362.857V345.714H383.785L406.184 322.678V253.571L378.942 231.607Z" fill="white"/>
</svg>
