<svg width="364" height="156" viewBox="0 0 364 156" fill="none" xmlns="http://www.w3.org/2000/svg">
<rect width="351" height="144" fill="#72F34A"/>
<path d="M66.7618 103.152C61.5138 103.152 57.0338 102.32 53.3218 100.656C49.6098 98.992 46.6338 96.944 44.3938 94.512L49.5778 87.408C51.6258 89.264 53.9938 90.864 56.6818 92.208C59.4338 93.488 62.4738 94.128 65.8018 94.128C69.5778 94.128 72.6818 93.328 75.1138 91.728C77.6098 90.064 78.8578 87.792 78.8578 84.912C78.8578 83.312 78.5058 81.872 77.8018 80.592C77.0978 79.312 75.9458 78.224 74.3458 77.328C72.8098 76.432 70.7298 75.76 68.1058 75.312C65.5458 74.8 62.3778 74.544 58.6018 74.544V66.48C61.8658 66.48 64.6498 66.256 66.9538 65.808C69.2578 65.296 71.1138 64.624 72.5218 63.792C73.9938 62.896 75.0498 61.84 75.6898 60.624C76.3938 59.408 76.7458 58.096 76.7458 56.688C76.7458 54.128 75.7538 52.144 73.7698 50.736C71.8498 49.264 69.2578 48.528 65.9938 48.528C63.3058 48.528 60.8098 49.072 58.5058 50.16C56.2658 51.184 54.1218 52.56 52.0738 54.288L46.3138 47.472C49.1298 45.168 52.2018 43.312 55.5298 41.904C58.8578 40.496 62.5058 39.792 66.4738 39.792C69.6098 39.792 72.4898 40.144 75.1138 40.848C77.7378 41.552 79.9778 42.608 81.8338 44.016C83.7538 45.36 85.2258 47.056 86.2498 49.104C87.3378 51.088 87.8818 53.36 87.8818 55.92C87.8818 59.376 86.7618 62.256 84.5218 64.56C82.2818 66.864 79.2738 68.656 75.4978 69.936V70.32C77.4818 70.832 79.3378 71.536 81.0658 72.432C82.8578 73.264 84.3938 74.32 85.6738 75.6C87.0178 76.88 88.0738 78.352 88.8418 80.016C89.6098 81.68 89.9938 83.504 89.9938 85.488C89.9938 88.304 89.3538 90.8 88.0737 92.976C86.8578 95.152 85.1938 97.008 83.0818 98.544C80.9698 100.016 78.5058 101.168 75.6898 102C72.8738 102.768 69.8978 103.152 66.7618 103.152ZM125.956 103.152C118.98 103.152 113.444 100.4 109.348 94.896C105.316 89.392 103.3 81.488 103.3 71.184C103.3 60.816 105.316 53.008 109.348 47.76C113.444 42.448 118.98 39.792 125.956 39.792C132.932 39.792 138.436 42.448 142.468 47.76C146.564 53.008 148.612 60.816 148.612 71.184C148.612 81.488 146.564 89.392 142.468 94.896C138.436 100.4 132.932 103.152 125.956 103.152ZM125.956 94.512C127.748 94.512 129.412 94.096 130.948 93.264C132.548 92.368 133.892 90.992 134.98 89.136C136.132 87.28 137.028 84.88 137.668 81.936C138.308 78.928 138.628 75.344 138.628 71.184C138.628 67.024 138.308 63.504 137.668 60.624C137.028 57.68 136.132 55.312 134.98 53.52C133.892 51.728 132.548 50.448 130.948 49.68C129.412 48.848 127.748 48.432 125.956 48.432C124.1 48.432 122.404 48.848 120.868 49.68C119.332 50.448 117.988 51.728 116.836 53.52C115.748 55.312 114.884 57.68 114.244 60.624C113.604 63.504 113.284 67.024 113.284 71.184C113.284 75.344 113.604 78.928 114.244 81.936C114.884 84.88 115.748 87.28 116.836 89.136C117.988 90.992 119.332 92.368 120.868 93.264C122.404 94.096 124.1 94.512 125.956 94.512ZM125.956 77.616C124.1 77.616 122.532 77.008 121.252 75.792C119.972 74.576 119.332 72.912 119.332 70.8C119.332 68.688 119.972 67.024 121.252 65.808C122.532 64.592 124.1 63.984 125.956 63.984C127.812 63.984 129.38 64.592 130.66 65.808C131.94 67.024 132.58 68.688 132.58 70.8C132.58 72.912 131.94 74.576 130.66 75.792C129.38 77.008 127.812 77.616 125.956 77.616ZM183.519 70.512C180.767 70.512 178.495 69.616 176.703 67.824C174.911 65.968 174.015 63.632 174.015 60.816C174.015 58 174.911 55.696 176.703 53.904C178.495 52.048 180.767 51.12 183.519 51.12C186.271 51.12 188.543 52.048 190.335 53.904C192.127 55.696 193.023 58 193.023 60.816C193.023 63.632 192.127 65.968 190.335 67.824C188.543 69.616 186.271 70.512 183.519 70.512ZM183.519 103.152C180.767 103.152 178.495 102.256 176.703 100.464C174.911 98.608 174.015 96.272 174.015 93.456C174.015 90.64 174.911 88.336 176.703 86.544C178.495 84.688 180.767 83.76 183.519 83.76C186.271 83.76 188.543 84.688 190.335 86.544C192.127 88.336 193.023 90.64 193.023 93.456C193.023 96.272 192.127 98.608 190.335 100.464C188.543 102.256 186.271 103.152 183.519 103.152ZM241.081 103.152C234.105 103.152 228.569 100.4 224.473 94.896C220.441 89.392 218.425 81.488 218.425 71.184C218.425 60.816 220.441 53.008 224.473 47.76C228.569 42.448 234.105 39.792 241.081 39.792C248.057 39.792 253.561 42.448 257.593 47.76C261.689 53.008 263.737 60.816 263.737 71.184C263.737 81.488 261.689 89.392 257.593 94.896C253.561 100.4 248.057 103.152 241.081 103.152ZM241.081 94.512C242.873 94.512 244.537 94.096 246.073 93.264C247.673 92.368 249.017 90.992 250.105 89.136C251.257 87.28 252.153 84.88 252.793 81.936C253.433 78.928 253.753 75.344 253.753 71.184C253.753 67.024 253.433 63.504 252.793 60.624C252.153 57.68 251.257 55.312 250.105 53.52C249.017 51.728 247.673 50.448 246.073 49.68C244.537 48.848 242.873 48.432 241.081 48.432C239.225 48.432 237.529 48.848 235.993 49.68C234.457 50.448 233.113 51.728 231.961 53.52C230.873 55.312 230.009 57.68 229.369 60.624C228.729 63.504 228.409 67.024 228.409 71.184C228.409 75.344 228.729 78.928 229.369 81.936C230.009 84.88 230.873 87.28 231.961 89.136C233.113 90.992 234.457 92.368 235.993 93.264C237.529 94.096 239.225 94.512 241.081 94.512ZM241.081 77.616C239.225 77.616 237.657 77.008 236.377 75.792C235.097 74.576 234.457 72.912 234.457 70.8C234.457 68.688 235.097 67.024 236.377 65.808C237.657 64.592 239.225 63.984 241.081 63.984C242.937 63.984 244.505 64.592 245.785 65.808C247.065 67.024 247.705 68.688 247.705 70.8C247.705 72.912 247.065 74.576 245.785 75.792C244.505 77.008 242.937 77.616 241.081 77.616ZM298.644 103.152C291.668 103.152 286.132 100.4 282.036 94.896C278.004 89.392 275.988 81.488 275.988 71.184C275.988 60.816 278.004 53.008 282.036 47.76C286.132 42.448 291.668 39.792 298.644 39.792C305.62 39.792 311.124 42.448 315.156 47.76C319.252 53.008 321.3 60.816 321.3 71.184C321.3 81.488 319.252 89.392 315.156 94.896C311.124 100.4 305.62 103.152 298.644 103.152ZM298.644 94.512C300.436 94.512 302.1 94.096 303.636 93.264C305.236 92.368 306.58 90.992 307.668 89.136C308.82 87.28 309.716 84.88 310.356 81.936C310.996 78.928 311.316 75.344 311.316 71.184C311.316 67.024 310.996 63.504 310.356 60.624C309.716 57.68 308.82 55.312 307.668 53.52C306.58 51.728 305.236 50.448 303.636 49.68C302.1 48.848 300.436 48.432 298.644 48.432C296.788 48.432 295.092 48.848 293.556 49.68C292.02 50.448 290.676 51.728 289.524 53.52C288.436 55.312 287.572 57.68 286.932 60.624C286.292 63.504 285.972 67.024 285.972 71.184C285.972 75.344 286.292 78.928 286.932 81.936C287.572 84.88 288.436 87.28 289.524 89.136C290.676 90.992 292.02 92.368 293.556 93.264C295.092 94.096 296.788 94.512 298.644 94.512ZM298.644 77.616C296.788 77.616 295.22 77.008 293.94 75.792C292.66 74.576 292.02 72.912 292.02 70.8C292.02 68.688 292.66 67.024 293.94 65.808C295.22 64.592 296.788 63.984 298.644 63.984C300.5 63.984 302.068 64.592 303.348 65.808C304.628 67.024 305.268 68.688 305.268 70.8C305.268 72.912 304.628 74.576 303.348 75.792C302.068 77.008 300.5 77.616 298.644 77.616Z" fill="white"/>
<path d="M53.3218 100.656L54.5489 97.9185L54.5489 97.9185L53.3218 100.656ZM44.3938 94.512L41.9704 92.7436L40.5187 94.733L42.1871 96.5444L44.3938 94.512ZM49.5778 87.408L51.5923 85.185L49.1206 82.9451L47.1544 85.6396L49.5778 87.408ZM56.6818 92.208L55.3401 94.8913L55.3781 94.9103L55.4166 94.9282L56.6818 92.208ZM75.1138 91.728L76.7626 94.2343L76.7702 94.2292L76.7779 94.2242L75.1138 91.728ZM77.8018 80.592L80.4304 79.1462L80.4304 79.1462L77.8018 80.592ZM74.3458 77.328L72.8341 79.9193L72.8569 79.9326L72.8799 79.9455L74.3458 77.328ZM68.1058 75.312L67.5174 78.2537L67.559 78.2621L67.6009 78.2692L68.1058 75.312ZM58.6018 74.544H55.6018V77.544H58.6018V74.544ZM58.6018 66.48V63.48H55.6018V66.48H58.6018ZM66.9538 65.808L67.5264 68.7528L67.5656 68.7452L67.6045 68.7366L66.9538 65.808ZM72.5218 63.792L74.0479 66.3748L74.0648 66.3648L74.0816 66.3546L72.5218 63.792ZM75.6898 60.624L73.0935 59.1209L73.0632 59.1732L73.035 59.2268L75.6898 60.624ZM73.7698 50.736L71.9445 53.1168L71.9884 53.1505L72.0335 53.1825L73.7698 50.736ZM58.5058 50.16L59.753 52.8884L59.7699 52.8807L59.7868 52.8727L58.5058 50.16ZM52.0738 54.288L49.7824 56.2244L51.7173 58.514L54.0084 56.5809L52.0738 54.288ZM46.3138 47.472L44.414 45.1501L42.055 47.0803L44.0224 49.4084L46.3138 47.472ZM55.5298 41.904L54.3608 39.1411L54.3608 39.1411L55.5298 41.904ZM75.1138 40.848L74.3364 43.7455L74.3364 43.7455L75.1138 40.848ZM81.8338 44.016L80.0206 46.4061L80.0663 46.4408L80.1134 46.4737L81.8338 44.016ZM86.2498 49.104L83.5665 50.4456L83.5919 50.4966L83.6193 50.5465L86.2498 49.104ZM75.4978 69.936L74.5346 67.0948L72.4978 67.7853V69.936H75.4978ZM75.4978 70.32H72.4978V72.6441L74.7481 73.2248L75.4978 70.32ZM81.0658 72.432L79.6848 75.0953L79.743 75.1254L79.8024 75.153L81.0658 72.432ZM85.6738 75.6L83.5524 77.7213L83.5783 77.7472L83.6048 77.7724L85.6738 75.6ZM88.8418 80.016L86.1179 81.2732L86.1179 81.2732L88.8418 80.016ZM88.0737 92.976L85.4879 91.4549L85.4711 91.4836L85.4549 91.5125L88.0737 92.976ZM83.0818 98.544L84.7971 101.005L84.8219 100.988L84.8463 100.97L83.0818 98.544ZM75.6898 102L76.4791 104.894L76.5095 104.886L76.5398 104.877L75.6898 102ZM66.7618 100.152C61.8189 100.152 57.7802 99.367 54.5489 97.9185L52.0946 103.394C56.2873 105.273 61.2086 106.152 66.7618 106.152V100.152ZM54.5489 97.9185C51.1247 96.3835 48.5094 94.5522 46.6004 92.4796L42.1871 96.5444C44.7581 99.3358 48.0948 101.601 52.0946 103.394L54.5489 97.9185ZM46.8171 96.2804L52.0011 89.1764L47.1544 85.6396L41.9704 92.7436L46.8171 96.2804ZM47.5632 89.631C49.8303 91.6855 52.4291 93.4358 55.3401 94.8913L58.0234 89.5247C55.5584 88.2922 53.4212 86.8425 51.5923 85.185L47.5632 89.631ZM55.4166 94.9282C58.6018 96.4097 62.0793 97.128 65.8018 97.128V91.128C62.8682 91.128 60.2657 90.5663 57.9469 89.4878L55.4166 94.9282ZM65.8018 97.128C69.9918 97.128 73.7147 96.2394 76.7626 94.2343L73.4649 89.2217C71.6488 90.4166 69.1637 91.128 65.8018 91.128V97.128ZM76.7779 94.2242C80.0669 92.0315 81.8578 88.844 81.8578 84.912H75.8578C75.8578 86.74 75.1526 88.0965 73.4497 89.2318L76.7779 94.2242ZM81.8578 84.912C81.8578 82.8558 81.4007 80.9105 80.4304 79.1462L75.1731 82.0378C75.6108 82.8335 75.8578 83.7682 75.8578 84.912H81.8578ZM80.4304 79.1462C79.3947 77.2632 77.7769 75.8111 75.8116 74.7105L72.8799 79.9455C74.1146 80.6369 74.8008 81.3608 75.1731 82.0378L80.4304 79.1462ZM75.8574 74.7367C73.8963 73.5927 71.4304 72.8362 68.6106 72.3548L67.6009 78.2692C70.0291 78.6838 71.7232 79.2713 72.8341 79.9193L75.8574 74.7367ZM68.6941 72.3703C65.8757 71.8066 62.4961 71.544 58.6018 71.544V77.544C62.2594 77.544 65.2158 77.7934 67.5174 78.2537L68.6941 72.3703ZM61.6018 74.544V66.48H55.6018V74.544H61.6018ZM58.6018 69.48C61.9895 69.48 64.9767 69.2486 67.5264 68.7528L66.3811 62.8632C64.3228 63.2634 61.742 63.48 58.6018 63.48V69.48ZM67.6045 68.7366C70.0925 68.1837 72.2768 67.4213 74.0479 66.3748L70.9956 61.2092C69.9507 61.8267 68.423 62.4083 66.303 62.8794L67.6045 68.7366ZM74.0816 66.3546C75.9006 65.2474 77.3949 63.8255 78.3445 62.0212L73.035 59.2268C72.7046 59.8544 72.0869 60.5446 70.9619 61.2294L74.0816 66.3546ZM78.286 62.1271C79.2551 60.4533 79.7458 58.6227 79.7458 56.688H73.7458C73.7458 57.5693 73.5324 58.3627 73.0935 59.1209L78.286 62.1271ZM79.7458 56.688C79.7458 53.2159 78.3304 50.2939 75.506 48.2895L72.0335 53.1825C73.1771 53.9941 73.7458 55.0401 73.7458 56.688H79.7458ZM75.595 48.3552C72.995 46.3618 69.6893 45.528 65.9938 45.528V51.528C68.8262 51.528 70.7045 52.1662 71.9445 53.1168L75.595 48.3552ZM65.9938 45.528C62.8877 45.528 59.9512 46.1597 57.2247 47.4473L59.7868 52.8727C61.6683 51.9843 63.7238 51.528 65.9938 51.528V45.528ZM57.2585 47.4316C54.7499 48.5783 52.3772 50.1067 50.1391 51.9951L54.0084 56.5809C55.8663 55.0133 57.7816 53.7897 59.753 52.8884L57.2585 47.4316ZM54.3651 52.3516L48.6051 45.5356L44.0224 49.4084L49.7824 56.2244L54.3651 52.3516ZM48.2135 49.7939C50.8097 47.6697 53.6359 45.9627 56.6987 44.6669L54.3608 39.1411C50.7676 40.6613 47.4498 42.6663 44.414 45.1501L48.2135 49.7939ZM56.6987 44.6669C59.622 43.4301 62.8677 42.792 66.4738 42.792V36.792C62.1438 36.792 58.0935 37.5619 54.3608 39.1411L56.6987 44.6669ZM66.4738 42.792C69.3867 42.792 72.0014 43.1191 74.3364 43.7455L75.8911 37.9505C72.9781 37.1689 69.8328 36.792 66.4738 36.792V42.792ZM74.3364 43.7455C76.647 44.3654 78.5207 45.2682 80.0206 46.4061L83.6469 41.6259C81.4348 39.9478 78.8285 38.7386 75.8911 37.9505L74.3364 43.7455ZM80.1134 46.4737C81.6346 47.5386 82.771 48.8548 83.5665 50.4456L88.933 47.7624C87.6805 45.2572 85.8729 43.1814 83.5541 41.5583L80.1134 46.4737ZM83.6193 50.5465C84.4345 52.033 84.8818 53.797 84.8818 55.92H90.8818C90.8818 52.923 90.241 50.143 88.8802 47.6615L83.6193 50.5465ZM84.8818 55.92C84.8818 58.6599 84.0227 60.7696 82.3708 62.4688L86.6727 66.6512C89.5008 63.7424 90.8818 60.0921 90.8818 55.92H84.8818ZM82.3708 62.4688C80.532 64.3601 77.9671 65.9313 74.5346 67.0948L76.4609 72.7772C80.5804 71.3807 84.0315 69.3679 86.6727 66.6512L82.3708 62.4688ZM72.4978 69.936V70.32H78.4978V69.936H72.4978ZM74.7481 73.2248C76.5247 73.6833 78.1677 74.3086 79.6848 75.0953L82.4467 69.7687C80.5078 68.7634 78.4388 67.9807 76.2474 67.4152L74.7481 73.2248ZM79.8024 75.153C81.3047 75.8505 82.5428 76.7117 83.5524 77.7213L87.7951 73.4787C86.2447 71.9283 84.4108 70.6775 82.3291 69.711L79.8024 75.153ZM83.6048 77.7724C84.6783 78.7948 85.5105 79.9573 86.1179 81.2732L91.5656 78.7588C90.637 76.7467 89.3572 74.9652 87.7427 73.4276L83.6048 77.7724ZM86.1179 81.2732C86.6893 82.5113 86.9938 83.9017 86.9938 85.488H92.9938C92.9938 83.1063 92.5302 80.8487 91.5656 78.7588L86.1179 81.2732ZM86.9938 85.488C86.9938 87.8324 86.4664 89.7916 85.4879 91.4549L90.6596 94.4971C92.2411 91.8084 92.9938 88.7756 92.9938 85.488H86.9938ZM85.4549 91.5125C84.4608 93.2915 83.0953 94.8247 81.3172 96.1178L84.8463 100.97C87.2922 99.1913 89.2547 97.0125 90.6926 94.4395L85.4549 91.5125ZM81.3664 96.0828C79.5529 97.3468 77.3895 98.3696 74.8397 99.1229L76.5398 104.877C79.622 103.966 82.3866 102.685 84.7971 101.005L81.3664 96.0828ZM74.9004 99.1057C72.36 99.7985 69.6508 100.152 66.7618 100.152V106.152C70.1447 106.152 73.3875 105.737 76.4791 104.894L74.9004 99.1057ZM109.348 94.896L106.928 96.6689L106.935 96.678L106.942 96.687L109.348 94.896ZM109.348 47.76L106.973 45.9281L106.969 45.9323L109.348 47.76ZM142.468 47.76L140.079 49.5738L140.091 49.5899L140.103 49.6058L142.468 47.76ZM142.468 94.896L140.062 93.105L140.055 93.114L140.048 93.1231L142.468 94.896ZM130.948 93.264L132.377 95.9019L132.396 95.8918L132.414 95.8815L130.948 93.264ZM134.98 89.136L132.431 87.5539L132.411 87.5861L132.392 87.6188L134.98 89.136ZM137.668 81.936L140.6 82.5733L140.603 82.5603L137.668 81.936ZM137.668 60.624L134.737 61.2613L134.74 61.2748L137.668 60.624ZM134.98 53.52L132.416 55.0769L132.436 55.1099L132.457 55.1423L134.98 53.52ZM130.948 49.68L129.519 52.3179L129.584 52.3528L129.65 52.3846L130.948 49.68ZM120.868 49.68L122.21 52.3633L122.254 52.3413L122.297 52.3179L120.868 49.68ZM116.836 53.52L114.313 51.8977L114.292 51.9301L114.272 51.9631L116.836 53.52ZM114.244 60.624L117.173 61.2748L117.176 61.2613L114.244 60.624ZM114.244 81.936L111.31 82.5603L111.313 82.5733L114.244 81.936ZM116.836 89.136L114.248 90.6532L114.267 90.6859L114.287 90.7181L116.836 89.136ZM120.868 93.264L119.357 95.8553L119.398 95.8793L119.439 95.9019L120.868 93.264ZM121.252 75.792L119.186 77.967L119.186 77.967L121.252 75.792ZM121.252 65.808L123.318 67.983L123.319 67.983L121.252 65.808ZM130.66 65.808L128.594 67.983L128.594 67.983L130.66 65.808ZM130.66 75.792L132.726 77.967L132.726 77.967L130.66 75.792ZM125.956 100.152C119.91 100.152 115.274 97.8333 111.755 93.105L106.942 96.687C111.615 102.967 118.051 106.152 125.956 106.152V100.152ZM111.768 93.1231C108.261 88.3358 106.3 81.158 106.3 71.184H100.3C100.3 81.818 102.371 90.4482 106.928 96.6689L111.768 93.1231ZM106.3 71.184C106.3 61.1262 108.269 54.0886 111.727 49.5877L106.969 45.9323C102.363 51.9274 100.3 60.5058 100.3 71.184H106.3ZM111.724 49.5919C115.226 45.0502 119.867 42.792 125.956 42.792V36.792C118.093 36.792 111.662 39.8458 106.973 45.9281L111.724 49.5919ZM125.956 42.792C132.045 42.792 136.644 45.0484 140.079 49.5738L144.858 45.9462C140.229 39.8476 133.82 36.792 125.956 36.792V42.792ZM140.103 49.6058C143.614 54.1043 145.612 61.1341 145.612 71.184H151.612C151.612 60.4979 149.514 51.9117 144.833 45.9142L140.103 49.6058ZM145.612 71.184C145.612 81.1501 143.622 88.3203 140.062 93.105L144.875 96.687C149.506 90.4637 151.612 81.8259 151.612 71.184H145.612ZM140.048 93.1231C136.596 97.8355 132.001 100.152 125.956 100.152V106.152C133.863 106.152 140.276 102.964 144.888 96.6689L140.048 93.1231ZM125.956 97.512C128.234 97.512 130.391 96.9778 132.377 95.9019L129.519 90.6261C128.434 91.2142 127.263 91.512 125.956 91.512V97.512ZM132.414 95.8815C134.554 94.6829 136.258 92.8888 137.568 90.6532L132.392 87.6188C131.527 89.0952 130.542 90.0531 129.482 90.6465L132.414 95.8815ZM137.529 90.7181C138.916 88.4841 139.913 85.7341 140.6 82.5733L134.737 81.2987C134.144 84.0259 133.349 86.0759 132.431 87.5539L137.529 90.7181ZM140.603 82.5603C141.298 79.2897 141.628 75.4856 141.628 71.184H135.628C135.628 75.2023 135.318 78.5663 134.734 81.3117L140.603 82.5603ZM141.628 71.184C141.628 66.8866 141.299 63.134 140.597 59.9732L134.74 61.2748C135.317 63.874 135.628 67.1614 135.628 71.184H141.628ZM140.6 59.9867C139.913 56.8262 138.912 54.0879 137.504 51.8977L132.457 55.1423C133.353 56.5361 134.144 58.5338 134.737 61.2613L140.6 59.9867ZM137.545 51.9631C136.21 49.7655 134.46 48.0378 132.246 46.9754L129.65 52.3846C130.637 52.8581 131.574 53.6904 132.416 55.0769L137.545 51.9631ZM132.377 47.0421C130.391 45.9661 128.234 45.432 125.956 45.432V51.432C127.263 51.432 128.434 51.7298 129.519 52.3179L132.377 47.0421ZM125.956 45.432C123.633 45.432 121.442 45.9576 119.439 47.0421L122.297 52.3179C123.367 51.7384 124.567 51.432 125.956 51.432V45.432ZM119.527 46.9967C117.405 48.0575 115.687 49.7606 114.313 51.8977L119.36 55.1423C120.29 53.6954 121.259 52.8385 122.21 52.3633L119.527 46.9967ZM114.272 51.9631C112.954 54.1338 111.995 56.8475 111.313 59.9867L117.176 61.2613C117.773 58.5125 118.543 56.4902 119.401 55.0769L114.272 51.9631ZM111.316 59.9732C110.613 63.134 110.284 66.8866 110.284 71.184H116.284C116.284 67.1614 116.595 63.874 117.173 61.2748L111.316 59.9732ZM110.284 71.184C110.284 75.4856 110.614 79.2897 111.31 82.5603L117.179 81.3117C116.594 78.5663 116.284 75.2023 116.284 71.184H110.284ZM111.313 82.5733C111.995 85.7129 112.95 88.4387 114.248 90.6532L119.424 87.6188C118.546 86.1213 117.773 84.0471 117.176 81.2987L111.313 82.5733ZM114.287 90.7181C115.639 92.8963 117.312 94.6624 119.357 95.8553L122.38 90.6727C121.353 90.0736 120.337 89.0877 119.385 87.5539L114.287 90.7181ZM119.439 95.9019C121.442 96.9864 123.633 97.512 125.956 97.512V91.512C124.567 91.512 123.367 91.2056 122.297 90.6261L119.439 95.9019ZM125.956 74.616C124.826 74.616 124.01 74.2741 123.318 73.617L119.186 77.967C121.054 79.7419 123.375 80.616 125.956 80.616V74.616ZM123.319 73.617C122.75 73.0772 122.332 72.264 122.332 70.8H116.332C116.332 73.56 117.194 76.0748 119.186 77.967L123.319 73.617ZM122.332 70.8C122.332 69.336 122.75 68.5228 123.318 67.983L119.186 63.633C117.194 65.5252 116.332 68.04 116.332 70.8H122.332ZM123.319 67.983C124.01 67.3259 124.826 66.984 125.956 66.984V60.984C123.375 60.984 121.054 61.8581 119.186 63.633L123.319 67.983ZM125.956 66.984C127.087 66.984 127.902 67.3259 128.594 67.983L132.727 63.633C130.858 61.8581 128.538 60.984 125.956 60.984V66.984ZM128.594 67.983C129.162 68.5228 129.58 69.336 129.58 70.8H135.58C135.58 68.04 134.718 65.5252 132.726 63.633L128.594 67.983ZM129.58 70.8C129.58 72.264 129.162 73.0772 128.594 73.617L132.726 77.967C134.718 76.0748 135.58 73.56 135.58 70.8H129.58ZM128.594 73.617C127.902 74.2741 127.087 74.616 125.956 74.616V80.616C128.538 80.616 130.858 79.7419 132.726 77.967L128.594 73.617ZM176.703 67.824L174.545 69.9078L174.563 69.9267L174.581 69.9453L176.703 67.824ZM176.703 53.904L178.824 56.0253L178.843 56.0067L178.861 55.9878L176.703 53.904ZM190.335 53.904L188.177 55.9878L188.195 56.0067L188.213 56.0253L190.335 53.904ZM190.335 67.824L192.456 69.9453L192.475 69.9267L192.493 69.9078L190.335 67.824ZM176.703 100.464L174.545 102.548L174.563 102.567L174.581 102.585L176.703 100.464ZM176.703 86.544L178.824 88.6653L178.843 88.6467L178.861 88.6278L176.703 86.544ZM190.335 86.544L188.177 88.6278L188.195 88.6467L188.213 88.6653L190.335 86.544ZM190.335 100.464L192.456 102.585L192.475 102.567L192.493 102.548L190.335 100.464ZM183.519 67.512C181.487 67.512 180.002 66.8809 178.824 65.7027L174.581 69.9453C176.987 72.3511 180.046 73.512 183.519 73.512V67.512ZM178.861 65.7402C177.661 64.4971 177.015 62.9325 177.015 60.816H171.015C171.015 64.3315 172.161 67.4389 174.545 69.9078L178.861 65.7402ZM177.015 60.816C177.015 58.6988 177.66 57.1897 178.824 56.0253L174.581 51.7827C172.162 54.2023 171.015 57.3012 171.015 60.816H177.015ZM178.861 55.9878C180.047 54.7594 181.52 54.12 183.519 54.12V48.12C180.013 48.12 176.943 49.3366 174.545 51.8202L178.861 55.9878ZM183.519 54.12C185.517 54.12 186.991 54.7594 188.177 55.9878L192.493 51.8202C190.095 49.3366 187.024 48.12 183.519 48.12V54.12ZM188.213 56.0253C189.378 57.1897 190.023 58.6988 190.023 60.816H196.023C196.023 57.3012 194.876 54.2023 192.456 51.7827L188.213 56.0253ZM190.023 60.816C190.023 62.9325 189.377 64.4971 188.177 65.7402L192.493 69.9078C194.877 67.4389 196.023 64.3315 196.023 60.816H190.023ZM188.213 65.7027C187.035 66.8809 185.55 67.512 183.519 67.512V73.512C186.991 73.512 190.05 72.3511 192.456 69.9453L188.213 65.7027ZM183.519 100.152C181.487 100.152 180.002 99.5209 178.824 98.3427L174.581 102.585C176.987 104.991 180.046 106.152 183.519 106.152V100.152ZM178.861 98.3802C177.661 97.1371 177.015 95.5725 177.015 93.456H171.015C171.015 96.9715 172.161 100.079 174.545 102.548L178.861 98.3802ZM177.015 93.456C177.015 91.3388 177.66 89.8297 178.824 88.6653L174.581 84.4227C172.162 86.8423 171.015 89.9412 171.015 93.456H177.015ZM178.861 88.6278C180.047 87.3994 181.52 86.76 183.519 86.76V80.76C180.013 80.76 176.943 81.9766 174.545 84.4602L178.861 88.6278ZM183.519 86.76C185.517 86.76 186.991 87.3994 188.177 88.6278L192.493 84.4602C190.095 81.9766 187.024 80.76 183.519 80.76V86.76ZM188.213 88.6653C189.378 89.8297 190.023 91.3388 190.023 93.456H196.023C196.023 89.9412 194.876 86.8423 192.456 84.4227L188.213 88.6653ZM190.023 93.456C190.023 95.5725 189.377 97.1371 188.177 98.3802L192.493 102.548C194.877 100.079 196.023 96.9715 196.023 93.456H190.023ZM188.213 98.3427C187.035 99.5209 185.55 100.152 183.519 100.152V106.152C186.991 106.152 190.05 104.991 192.456 102.585L188.213 98.3427ZM224.473 94.896L222.053 96.6689L222.06 96.678L222.067 96.687L224.473 94.896ZM224.473 47.76L222.098 45.9281L222.094 45.9323L224.473 47.76ZM257.593 47.76L255.204 49.5738L255.216 49.5899L255.228 49.6058L257.593 47.76ZM257.593 94.896L255.187 93.105L255.18 93.114L255.173 93.1231L257.593 94.896ZM246.073 93.264L247.502 95.9019L247.521 95.8918L247.539 95.8815L246.073 93.264ZM250.105 89.136L247.556 87.5539L247.536 87.5861L247.517 87.6188L250.105 89.136ZM252.793 81.936L255.725 82.5733L255.728 82.5603L252.793 81.936ZM252.793 60.624L249.862 61.2613L249.865 61.2748L252.793 60.624ZM250.105 53.52L247.541 55.0769L247.561 55.1099L247.582 55.1423L250.105 53.52ZM246.073 49.68L244.644 52.3179L244.709 52.3528L244.775 52.3846L246.073 49.68ZM235.993 49.68L237.335 52.3633L237.379 52.3413L237.422 52.3179L235.993 49.68ZM231.961 53.52L229.438 51.8977L229.417 51.9301L229.397 51.9631L231.961 53.52ZM229.369 60.624L232.298 61.2748L232.301 61.2613L229.369 60.624ZM229.369 81.936L226.435 82.5603L226.438 82.5733L229.369 81.936ZM231.961 89.136L229.373 90.6532L229.392 90.6859L229.412 90.7181L231.961 89.136ZM235.993 93.264L234.482 95.8553L234.523 95.8793L234.564 95.9019L235.993 93.264ZM236.377 75.792L234.311 77.967L234.311 77.967L236.377 75.792ZM236.377 65.808L238.443 67.983L238.444 67.983L236.377 65.808ZM245.785 65.808L243.719 67.983L243.719 67.983L245.785 65.808ZM245.785 75.792L247.851 77.967L247.851 77.967L245.785 75.792ZM241.081 100.152C235.035 100.152 230.399 97.8333 226.88 93.105L222.067 96.687C226.74 102.967 233.176 106.152 241.081 106.152V100.152ZM226.893 93.1231C223.386 88.3358 221.425 81.158 221.425 71.184H215.425C215.425 81.818 217.496 90.4482 222.053 96.6689L226.893 93.1231ZM221.425 71.184C221.425 61.1262 223.394 54.0886 226.852 49.5877L222.094 45.9323C217.488 51.9274 215.425 60.5058 215.425 71.184H221.425ZM226.849 49.5919C230.351 45.0502 234.992 42.792 241.081 42.792V36.792C233.218 36.792 226.787 39.8458 222.098 45.9281L226.849 49.5919ZM241.081 42.792C247.17 42.792 251.769 45.0484 255.204 49.5738L259.983 45.9462C255.354 39.8476 248.945 36.792 241.081 36.792V42.792ZM255.228 49.6058C258.739 54.1043 260.737 61.1341 260.737 71.184H266.737C266.737 60.4979 264.639 51.9117 259.958 45.9142L255.228 49.6058ZM260.737 71.184C260.737 81.1501 258.747 88.3203 255.187 93.105L260 96.687C264.631 90.4637 266.737 81.8259 266.737 71.184H260.737ZM255.173 93.1231C251.721 97.8355 247.126 100.152 241.081 100.152V106.152C248.988 106.152 255.401 102.964 260.013 96.6689L255.173 93.1231ZM241.081 97.512C243.359 97.512 245.516 96.9778 247.502 95.9019L244.644 90.6261C243.559 91.2142 242.388 91.512 241.081 91.512V97.512ZM247.539 95.8815C249.679 94.6829 251.383 92.8888 252.693 90.6532L247.517 87.6188C246.652 89.0952 245.667 90.0531 244.607 90.6465L247.539 95.8815ZM252.654 90.7181C254.041 88.4841 255.038 85.7341 255.725 82.5733L249.862 81.2987C249.269 84.0259 248.474 86.0759 247.556 87.5539L252.654 90.7181ZM255.728 82.5603C256.423 79.2897 256.753 75.4856 256.753 71.184H250.753C250.753 75.2023 250.443 78.5663 249.859 81.3117L255.728 82.5603ZM256.753 71.184C256.753 66.8866 256.424 63.134 255.722 59.9732L249.865 61.2748C250.442 63.874 250.753 67.1614 250.753 71.184H256.753ZM255.725 59.9867C255.038 56.8262 254.037 54.0879 252.629 51.8977L247.582 55.1423C248.478 56.5361 249.269 58.5338 249.862 61.2613L255.725 59.9867ZM252.67 51.9631C251.335 49.7655 249.585 48.0378 247.371 46.9754L244.775 52.3846C245.762 52.8581 246.699 53.6904 247.541 55.0769L252.67 51.9631ZM247.502 47.0421C245.516 45.9661 243.359 45.432 241.081 45.432V51.432C242.388 51.432 243.559 51.7298 244.644 52.3179L247.502 47.0421ZM241.081 45.432C238.758 45.432 236.567 45.9576 234.564 47.0421L237.422 52.3179C238.492 51.7384 239.692 51.432 241.081 51.432V45.432ZM234.652 46.9967C232.53 48.0575 230.812 49.7606 229.438 51.8977L234.485 55.1423C235.415 53.6954 236.384 52.8385 237.335 52.3633L234.652 46.9967ZM229.397 51.9631C228.079 54.1338 227.12 56.8475 226.438 59.9867L232.301 61.2613C232.898 58.5125 233.668 56.4902 234.526 55.0769L229.397 51.9631ZM226.441 59.9732C225.738 63.134 225.409 66.8866 225.409 71.184H231.409C231.409 67.1614 231.72 63.874 232.298 61.2748L226.441 59.9732ZM225.409 71.184C225.409 75.4856 225.739 79.2897 226.435 82.5603L232.304 81.3117C231.719 78.5663 231.409 75.2023 231.409 71.184H225.409ZM226.438 82.5733C227.12 85.7129 228.075 88.4387 229.373 90.6532L234.549 87.6188C233.671 86.1213 232.898 84.0471 232.301 81.2987L226.438 82.5733ZM229.412 90.7181C230.764 92.8963 232.437 94.6624 234.482 95.8553L237.505 90.6727C236.478 90.0736 235.462 89.0877 234.51 87.5539L229.412 90.7181ZM234.564 95.9019C236.567 96.9864 238.758 97.512 241.081 97.512V91.512C239.692 91.512 238.492 91.2056 237.422 90.6261L234.564 95.9019ZM241.081 74.616C239.951 74.616 239.135 74.2741 238.443 73.617L234.311 77.967C236.179 79.7419 238.5 80.616 241.081 80.616V74.616ZM238.444 73.617C237.875 73.0772 237.457 72.264 237.457 70.8H231.457C231.457 73.56 232.319 76.0748 234.311 77.967L238.444 73.617ZM237.457 70.8C237.457 69.336 237.875 68.5228 238.443 67.983L234.311 63.633C232.319 65.5252 231.457 68.04 231.457 70.8H237.457ZM238.444 67.983C239.135 67.3259 239.951 66.984 241.081 66.984V60.984C238.5 60.984 236.179 61.8581 234.311 63.633L238.444 67.983ZM241.081 66.984C242.212 66.984 243.027 67.3259 243.719 67.983L247.852 63.633C245.983 61.8581 243.663 60.984 241.081 60.984V66.984ZM243.719 67.983C244.287 68.5228 244.705 69.336 244.705 70.8H250.705C250.705 68.04 249.843 65.5252 247.851 63.633L243.719 67.983ZM244.705 70.8C244.705 72.264 244.287 73.0772 243.719 73.617L247.851 77.967C249.843 76.0748 250.705 73.56 250.705 70.8H244.705ZM243.719 73.617C243.027 74.2741 242.212 74.616 241.081 74.616V80.616C243.663 80.616 245.983 79.7419 247.851 77.967L243.719 73.617ZM282.036 94.896L279.616 96.6689L279.622 96.678L279.629 96.687L282.036 94.896ZM282.036 47.76L279.66 45.9281L279.657 45.9323L282.036 47.76ZM315.156 47.76L312.766 49.5738L312.778 49.5899L312.791 49.6058L315.156 47.76ZM315.156 94.896L312.749 93.105L312.742 93.114L312.736 93.1231L315.156 94.896ZM303.636 93.264L305.065 95.9019L305.083 95.8918L305.102 95.8815L303.636 93.264ZM307.668 89.136L305.119 87.5539L305.099 87.5861L305.08 87.6188L307.668 89.136ZM310.356 81.936L313.287 82.5733L313.29 82.5603L310.356 81.936ZM310.356 60.624L307.424 61.2613L307.427 61.2748L310.356 60.624ZM307.668 53.52L305.103 55.0769L305.123 55.1099L305.144 55.1423L307.668 53.52ZM303.636 49.68L302.207 52.3179L302.271 52.3528L302.338 52.3846L303.636 49.68ZM293.556 49.68L294.897 52.3633L294.941 52.3413L294.985 52.3179L293.556 49.68ZM289.524 53.52L287 51.8977L286.979 51.9301L286.959 51.9631L289.524 53.52ZM286.932 60.624L289.86 61.2748L289.863 61.2613L286.932 60.624ZM286.932 81.936L283.997 82.5603L284 82.5733L286.932 81.936ZM289.524 89.136L286.936 90.6532L286.955 90.6859L286.975 90.7181L289.524 89.136ZM293.556 93.264L292.044 95.8553L292.085 95.8793L292.127 95.9019L293.556 93.264ZM293.94 75.792L291.874 77.967L291.874 77.967L293.94 75.792ZM293.94 65.808L296.006 67.983L296.006 67.983L293.94 65.808ZM303.348 65.808L301.281 67.983L301.282 67.983L303.348 65.808ZM303.348 75.792L305.414 77.967L305.414 77.967L303.348 75.792ZM298.644 100.152C292.597 100.152 287.961 97.8333 284.442 93.105L279.629 96.687C284.302 102.967 290.738 106.152 298.644 106.152V100.152ZM284.456 93.1231C280.949 88.3358 278.988 81.158 278.988 71.184H272.988C272.988 81.818 275.059 90.4482 279.616 96.6689L284.456 93.1231ZM278.988 71.184C278.988 61.1262 280.957 54.0886 284.415 49.5877L279.657 45.9323C275.051 51.9274 272.988 60.5058 272.988 71.184H278.988ZM284.411 49.5919C287.914 45.0502 292.555 42.792 298.644 42.792V36.792C290.781 36.792 284.35 39.8458 279.66 45.9281L284.411 49.5919ZM298.644 42.792C304.732 42.792 309.331 45.0484 312.766 49.5738L317.545 45.9462C312.916 39.8476 306.507 36.792 298.644 36.792V42.792ZM312.791 49.6058C316.302 54.1043 318.3 61.1341 318.3 71.184H324.3C324.3 60.4979 322.202 51.9117 317.521 45.9142L312.791 49.6058ZM318.3 71.184C318.3 81.1501 316.31 88.3203 312.749 93.105L317.562 96.687C322.194 90.4637 324.3 81.8259 324.3 71.184H318.3ZM312.736 93.1231C309.284 97.8355 304.689 100.152 298.644 100.152V106.152C306.551 106.152 312.964 102.964 317.576 96.6689L312.736 93.1231ZM298.644 97.512C300.921 97.512 303.078 96.9778 305.065 95.9019L302.207 90.6261C301.121 91.2142 299.95 91.512 298.644 91.512V97.512ZM305.102 95.8815C307.242 94.6829 308.945 92.8888 310.256 90.6532L305.08 87.6188C304.214 89.0952 303.23 90.0531 302.17 90.6465L305.102 95.8815ZM310.217 90.7181C311.603 88.4841 312.6 85.7341 313.287 82.5733L307.424 81.2987C306.831 84.0259 306.036 86.0759 305.119 87.5539L310.217 90.7181ZM313.29 82.5603C313.986 79.2897 314.316 75.4856 314.316 71.184H308.316C308.316 75.2023 308.006 78.5663 307.421 81.3117L313.29 82.5603ZM314.316 71.184C314.316 66.8866 313.987 63.134 313.284 59.9732L307.427 61.2748C308.005 63.874 308.316 67.1614 308.316 71.184H314.316ZM313.287 59.9867C312.6 56.8262 311.599 54.0879 310.191 51.8977L305.144 55.1423C306.04 56.5361 306.831 58.5338 307.424 61.2613L313.287 59.9867ZM310.232 51.9631C308.898 49.7655 307.147 48.0378 304.934 46.9754L302.338 52.3846C303.324 52.8581 304.262 53.6904 305.103 55.0769L310.232 51.9631ZM305.065 47.0421C303.078 45.9661 300.921 45.432 298.644 45.432V51.432C299.95 51.432 301.121 51.7298 302.207 52.3179L305.065 47.0421ZM298.644 45.432C296.321 45.432 294.129 45.9576 292.127 47.0421L294.985 52.3179C296.054 51.7384 297.255 51.432 298.644 51.432V45.432ZM292.214 46.9967C290.093 48.0575 288.374 49.7606 287 51.8977L292.047 55.1423C292.977 53.6954 293.947 52.8385 294.897 52.3633L292.214 46.9967ZM286.959 51.9631C285.641 54.1338 284.683 56.8475 284 59.9867L289.863 61.2613C290.461 58.5125 291.23 56.4902 292.088 55.0769L286.959 51.9631ZM284.003 59.9732C283.301 63.134 282.972 66.8866 282.972 71.184H288.972C288.972 67.1614 289.283 63.874 289.86 61.2748L284.003 59.9732ZM282.972 71.184C282.972 75.4856 283.302 79.2897 283.997 82.5603L289.866 81.3117C289.282 78.5663 288.972 75.2023 288.972 71.184H282.972ZM284 82.5733C284.683 85.7129 285.638 88.4387 286.936 90.6532L292.112 87.6188C291.234 86.1213 290.461 84.0471 289.863 81.2987L284 82.5733ZM286.975 90.7181C288.327 92.8963 289.999 94.6624 292.044 95.8553L295.067 90.6727C294.04 90.0736 293.025 89.0877 292.073 87.5539L286.975 90.7181ZM292.127 95.9019C294.129 96.9864 296.321 97.512 298.644 97.512V91.512C297.255 91.512 296.054 91.2056 294.985 90.6261L292.127 95.9019ZM298.644 74.616C297.513 74.616 296.698 74.2741 296.006 73.617L291.874 77.967C293.742 79.7419 296.062 80.616 298.644 80.616V74.616ZM296.006 73.617C295.438 73.0772 295.02 72.264 295.02 70.8H289.02C289.02 73.56 289.882 76.0748 291.874 77.967L296.006 73.617ZM295.02 70.8C295.02 69.336 295.438 68.5228 296.006 67.983L291.874 63.633C289.882 65.5252 289.02 68.04 289.02 70.8H295.02ZM296.006 67.983C296.698 67.3259 297.513 66.984 298.644 66.984V60.984C296.062 60.984 293.742 61.8581 291.874 63.633L296.006 67.983ZM298.644 66.984C299.774 66.984 300.59 67.3259 301.281 67.983L305.414 63.633C303.546 61.8581 301.225 60.984 298.644 60.984V66.984ZM301.282 67.983C301.85 68.5228 302.268 69.336 302.268 70.8H308.268C308.268 68.04 307.406 65.5252 305.414 63.633L301.282 67.983ZM302.268 70.8C302.268 72.264 301.85 73.0772 301.282 73.617L305.414 77.967C307.406 76.0748 308.268 73.56 308.268 70.8H302.268ZM301.282 73.617C300.59 74.2741 299.774 74.616 298.644 74.616V80.616C301.225 80.616 303.546 79.7419 305.414 77.967L301.282 73.617Z" fill="black"/>
</svg>
